<svg width="39" height="38" viewBox="0 0 39 38" fill="none" xmlns="http://www.w3.org/2000/svg">
<rect x="0.5" width="38" height="38" rx="19" fill="#544040"/>
<path d="M19.5 11.2169C22.0181 11.2169 22.3614 11.2169 23.3916 11.2169C24.3072 11.2169 24.7651 11.4458 25.1084 11.5602C25.5663 11.7892 25.9096 11.9036 26.253 12.247C26.5964 12.5904 26.8253 12.9337 26.9398 13.3916C27.0542 13.7349 27.1687 14.1928 27.2831 15.1084C27.2831 16.1386 27.2831 16.3675 27.2831 19C27.2831 21.6325 27.2831 21.8614 27.2831 22.8916C27.2831 23.8072 27.0542 24.2651 26.9398 24.6084C26.7108 25.0663 26.5964 25.4096 26.253 25.753C25.9096 26.0964 25.5663 26.3253 25.1084 26.4398C24.7651 26.5542 24.3072 26.6687 23.3916 26.7831C22.3614 26.7831 22.1325 26.7831 19.5 26.7831C16.8675 26.7831 16.6386 26.7831 15.6084 26.7831C14.6928 26.7831 14.2349 26.5542 13.8916 26.4398C13.4337 26.2108 13.0904 26.0964 12.747 25.753C12.4036 25.4096 12.1747 25.0663 12.0602 24.6084C11.9458 24.2651 11.8313 23.8072 11.7169 22.8916C11.7169 21.8614 11.7169 21.6325 11.7169 19C11.7169 16.3675 11.7169 16.1386 11.7169 15.1084C11.7169 14.1928 11.9458 13.7349 12.0602 13.3916C12.2892 12.9337 12.4036 12.5904 12.747 12.247C13.0904 11.9036 13.4337 11.6747 13.8916 11.5602C14.2349 11.4458 14.6928 11.3313 15.6084 11.2169C16.6386 11.2169 16.9819 11.2169 19.5 11.2169ZM19.5 9.5C16.8675 9.5 16.6386 9.5 15.6084 9.5C14.5783 9.5 13.8916 9.72892 13.3193 9.95783C12.747 10.1867 12.1747 10.5301 11.6024 11.1024C11.0301 11.6747 10.8012 12.1325 10.4578 12.8193C10.2289 13.3916 10.1145 14.0783 10 15.1084C10 16.1386 10 16.4819 10 19C10 21.6325 10 21.8614 10 22.8916C10 23.9217 10.2289 24.6084 10.4578 25.1807C10.6867 25.753 11.0301 26.3253 11.6024 26.8976C12.1747 27.4699 12.6325 27.6988 13.3193 28.0422C13.8916 28.2711 14.5783 28.3855 15.6084 28.5C16.6386 28.5 16.9819 28.5 19.5 28.5C22.0181 28.5 22.3614 28.5 23.3916 28.5C24.4217 28.5 25.1084 28.2711 25.6807 28.0422C26.253 27.8133 26.8253 27.4699 27.3976 26.8976C27.9699 26.3253 28.1988 25.8675 28.5422 25.1807C28.7711 24.6084 28.8855 23.9217 29 22.8916C29 21.8614 29 21.5181 29 19C29 16.4819 29 16.1386 29 15.1084C29 14.0783 28.7711 13.3916 28.5422 12.8193C28.3133 12.247 27.9699 11.6747 27.3976 11.1024C26.8253 10.5301 26.3675 10.3012 25.6807 9.95783C25.1084 9.72892 24.4217 9.61446 23.3916 9.5C22.3614 9.5 22.1325 9.5 19.5 9.5Z" fill="white"/>
<path d="M19.5 14.0783C16.753 14.0783 14.5783 16.253 14.5783 19C14.5783 21.747 16.753 23.9217 19.5 23.9217C22.247 23.9217 24.4217 21.747 24.4217 19C24.4217 16.253 22.247 14.0783 19.5 14.0783ZM19.5 22.2048C17.7831 22.2048 16.2952 20.8313 16.2952 19C16.2952 17.2831 17.6687 15.7952 19.5 15.7952C21.2169 15.7952 22.7048 17.1687 22.7048 19C22.7048 20.7169 21.2169 22.2048 19.5 22.2048Z" fill="white"/>
<path d="M24.5361 15.1084C25.1683 15.1084 25.6807 14.596 25.6807 13.9639C25.6807 13.3317 25.1683 12.8193 24.5361 12.8193C23.904 12.8193 23.3916 13.3317 23.3916 13.9639C23.3916 14.596 23.904 15.1084 24.5361 15.1084Z" fill="white"/>
</svg>
