<svg width="48" height="48" viewBox="0 0 48 48" fill="none" xmlns="http://www.w3.org/2000/svg">
<rect width="48" height="48" rx="24" fill="#544040"/>
<path d="M33.6001 24.8933V31.5121H29.7257V25.2969C29.7257 23.7633 29.1606 22.7139 27.7884 22.7139C26.7391 22.7139 26.0934 23.4404 25.8512 24.0861C25.7705 24.3283 25.6898 24.6511 25.6898 25.0547V31.5121H21.8153C21.8153 31.5121 21.8961 21.0189 21.8153 19.9695H25.6898V21.5839C26.1741 20.7767 27.1427 19.6467 29.1606 19.6467C31.6629 19.6467 33.6001 21.3417 33.6001 24.8933ZM17.7795 14.4C16.488 14.4 15.6001 15.2879 15.6001 16.418C15.6001 17.548 16.4073 18.4359 17.6988 18.4359C19.0709 18.4359 19.8781 17.548 19.8781 16.418C19.9588 15.2072 19.1517 14.4 17.7795 14.4ZM15.8422 31.5121H19.7167V19.9695H15.8422V31.5121Z" fill="white"/>
</svg>
