<svg width="48" height="48" viewBox="0 0 48 48" fill="none" xmlns="http://www.w3.org/2000/svg">
<path d="M48 24C48 10.7452 37.2548 0 24 0C10.7452 0 0 10.7452 0 24C0 37.2548 10.7452 48 24 48C37.2548 48 48 37.2548 48 24Z" fill="#544040"/>
<path d="M24 12C17.4 12 12 17.4 12 24C12 28.95 15 33.15 19.2 34.95C19.2 34.05 19.2 33.15 19.35 32.25C19.65 31.2 20.85 25.65 20.85 25.65C20.85 25.65 20.4 24.9 20.4 23.7C20.4 21.9 21.45 20.55 22.65 20.55C23.7 20.55 24.3 21.3 24.3 22.35C24.3 23.4 23.55 25.05 23.25 26.55C22.95 27.75 23.85 28.8 25.2 28.8C27.45 28.8 28.95 25.95 28.95 22.35C28.95 19.65 27.15 17.7 24 17.7C20.4 17.7 18.15 20.4 18.15 23.4C18.15 24.45 18.45 25.2 18.9 25.8C19.05 26.1 19.2 26.1 19.05 26.4C19.05 26.55 18.9 27.15 18.75 27.3C18.6 27.6 18.45 27.75 18.15 27.6C16.5 26.85 15.75 25.05 15.75 22.95C15.75 19.5 18.6 15.45 24.3 15.45C28.95 15.45 31.95 18.75 31.95 22.35C31.95 27 29.4 30.6 25.5 30.6C24.15 30.6 22.95 29.85 22.5 29.1C22.5 29.1 21.75 31.8 21.6 32.4C21.3 33.3 20.85 34.2 20.4 34.95C21.45 35.25 22.65 35.4 23.85 35.4C30.45 35.4 35.85 30 35.85 23.4C36 17.4 30.6 12 24 12Z" fill="white"/>
</svg>
