<svg width="177" height="59" viewBox="0 0 177 59" fill="none" xmlns="http://www.w3.org/2000/svg">
<path d="M85.424 46.4239C83.816 46.9999 82.136 47.2879 80.384 47.2879C78.656 47.2879 77.144 46.9039 75.968 46.2079C73.472 44.7199 71.984 42.0319 71.984 38.9599C71.984 36.5119 72.848 34.3759 74.48 32.8159C75.992 31.3519 78.032 30.6079 80.528 30.6079C82.184 30.6079 83.816 30.9199 85.424 31.4959V35.5039H83.648L83.192 32.9359L82.856 32.5279C82.208 32.2879 81.584 32.1679 80.96 32.1679C77.672 32.1679 75.512 34.6879 75.512 38.9359C75.512 43.2319 77.696 45.7759 81.272 45.7759C81.68 45.7759 82.16 45.7039 82.736 45.5599L83.096 45.1999L83.696 42.2959H85.424V46.4239Z" fill="#156C5F"/>
<path d="M97.2928 44.0239V45.7999C95.6848 46.7359 94.0048 47.2159 92.3248 47.2159C88.7488 47.2159 86.3968 44.8159 86.3968 41.1919C86.3968 37.5199 88.8688 34.9999 92.3248 34.9999C95.4688 34.9999 97.3168 36.9679 97.3168 40.4239V40.8799H89.4688V40.9519C89.4688 43.7119 90.9568 45.3439 93.3328 45.3439C94.6048 45.3439 95.9008 44.9119 97.2928 44.0239ZM94.1728 39.6079V39.3439C94.1728 37.3519 93.4048 36.3199 92.0848 36.3199C90.6448 36.3199 89.6608 37.5199 89.5888 39.6079H94.1728Z" fill="#156C5F"/>
<path d="M97.8307 46.9999V45.9199L99.1027 45.8239L99.4387 45.4639V37.1839H97.7107V36.2239L101.239 35.0959H102.391L102.295 37.5439C103.159 36.6079 104.119 35.7919 105.103 35.0959C105.271 35.0719 105.463 35.0479 105.631 35.0479C106.159 35.0479 106.687 35.1919 107.215 35.4559L106.903 38.7679H105.655C105.295 38.1679 104.791 37.9039 104.095 37.9039C103.711 37.9039 103.135 38.1199 102.391 38.5759V45.4639L102.751 45.8239L104.455 45.9199V46.9999H97.8307Z" fill="#156C5F"/>
<path d="M118.06 44.0239V45.7999C116.452 46.7359 114.772 47.2159 113.092 47.2159C109.516 47.2159 107.164 44.8159 107.164 41.1919C107.164 37.5199 109.636 34.9999 113.092 34.9999C116.236 34.9999 118.084 36.9679 118.084 40.4239V40.8799H110.236V40.9519C110.236 43.7119 111.724 45.3439 114.1 45.3439C115.372 45.3439 116.668 44.9119 118.06 44.0239ZM114.94 39.6079V39.3439C114.94 37.3519 114.172 36.3199 112.852 36.3199C111.412 36.3199 110.428 37.5199 110.356 39.6079H114.94Z" fill="#156C5F"/>
<path d="M129.926 36.6799C131.846 35.5759 133.286 35.0479 134.174 35.0479C136.406 35.0479 137.51 36.3679 137.51 39.0319V45.4639L137.822 45.8239L139.094 45.9199V46.9999H133.19V45.9199L134.222 45.8239L134.558 45.4639V39.7279C134.558 37.9279 133.934 37.1359 132.35 37.1359C131.75 37.1359 131.078 37.3039 130.286 37.5919V45.4639L130.622 45.8239L131.702 45.9439V46.9999H126.038V45.9199L127.022 45.8239L127.358 45.4159V39.5839C127.358 37.9039 126.734 37.1119 125.198 37.1119C124.622 37.1119 123.95 37.2559 123.182 37.5439V45.4639L123.518 45.8239L124.526 45.9199V46.9999H118.646V45.9199L119.87 45.8239L120.206 45.4639V37.1839H118.646V36.2239L122.03 35.0959H123.182V36.5119C124.814 35.5519 126.062 34.9999 127.118 34.9999C128.318 34.9999 129.278 35.5759 129.926 36.6799Z" fill="#156C5F"/>
<path d="M144.788 35.0239C148.46 35.0239 150.812 37.3999 150.812 41.2159C150.812 44.7679 148.388 47.1919 144.596 47.1919C140.996 47.1919 138.572 44.7919 138.572 41.1679C138.572 37.4719 141.02 35.0239 144.788 35.0239ZM144.692 36.2959C142.988 36.2959 141.908 37.9759 141.908 41.0719C141.908 44.2159 142.988 45.9199 144.668 45.9199C146.444 45.9199 147.5 44.2639 147.5 41.1439C147.5 37.9999 146.396 36.2959 144.692 36.2959Z" fill="#156C5F"/>
<path d="M151.015 46.9999V45.9199L152.239 45.8239L152.575 45.4639V37.1839H150.943V36.2239L154.399 35.0959H155.551V36.5119C157.255 35.5759 158.599 35.0479 159.655 35.0479C161.863 35.0479 162.919 36.3679 162.919 39.0319V45.4639L163.231 45.8239L164.503 45.9199V46.9999H158.623V45.9199L159.655 45.8239L159.991 45.4639V39.7279C159.991 37.9519 159.343 37.1359 157.831 37.1359C157.231 37.1359 156.463 37.2799 155.551 37.5439V45.4639L155.887 45.8239L156.943 45.9199V46.9999H151.015Z" fill="#156C5F"/>
<path d="M163.747 35.3359H169.843V36.3679L168.619 36.5119L168.379 36.8479L170.971 43.6399L173.587 36.8719L173.371 36.5119L172.099 36.3679V35.3359H176.707V36.3679L175.411 36.5839L170.779 47.8399C169.603 50.6719 167.899 52.2559 166.315 52.2559C165.139 52.2559 164.251 51.3919 164.251 50.4799C164.251 49.7839 164.707 49.1839 165.499 48.7759L167.587 50.2159C168.211 49.7119 168.859 48.7279 169.459 47.2879L165.187 36.5839L163.747 36.3679V35.3359Z" fill="#156C5F"/>
<path d="M72.624 25.9999V24.8479L74.04 24.6559L74.472 24.2239V11.5279L74.136 11.1919L72.6 11.0719V9.89592H78.12V10.5439L85.464 21.9439V11.6719L85.032 11.2159L83.568 11.0239V9.89592H89.04V11.0239L87.624 11.2159L87.216 11.6719V25.9999H84.528L76.224 13.1119V24.2239L76.608 24.6559L78.096 24.8479V25.9999H72.624Z" fill="#156C5F"/>
<path d="M95.2534 14.0239C98.9254 14.0239 101.277 16.3999 101.277 20.2159C101.277 23.7679 98.8534 26.1919 95.0614 26.1919C91.4614 26.1919 89.0374 23.7919 89.0374 20.1679C89.0374 16.4719 91.4854 14.0239 95.2534 14.0239ZM95.1574 15.2959C93.4534 15.2959 92.3734 16.9759 92.3734 20.0719C92.3734 23.2159 93.4534 24.9199 95.1334 24.9199C96.9094 24.9199 97.9654 23.2639 97.9654 20.1439C97.9654 16.9999 96.8614 15.2959 95.1574 15.2959Z" fill="#156C5F"/>
<path d="M101.737 25.9999V24.9199L103.009 24.8239L103.345 24.4639V16.1839H101.617V15.2239L105.145 14.0959H106.297L106.201 16.5439C107.065 15.6079 108.025 14.7919 109.009 14.0959C109.177 14.0719 109.369 14.0479 109.537 14.0479C110.065 14.0479 110.593 14.1919 111.121 14.4559L110.809 17.7679H109.561C109.201 17.1679 108.697 16.9039 108.001 16.9039C107.617 16.9039 107.041 17.1199 106.297 17.5759V24.4639L106.657 24.8239L108.361 24.9199V25.9999H101.737Z" fill="#156C5F"/>
<path d="M119.519 10.3519H117.767V9.39192L121.343 8.26392H122.447V24.4639L122.783 24.8479L124.007 24.9439V25.9999H119.519V24.6559C118.151 25.6639 116.951 26.2159 115.727 26.2159C113.039 26.2159 111.071 23.8879 111.071 20.4319C111.071 16.5679 113.615 13.9999 117.263 13.9999C117.911 13.9999 118.655 14.0719 119.519 14.2399V10.3519ZM119.519 23.7199V15.7039C118.823 15.4639 118.247 15.3439 117.743 15.3439C115.703 15.3439 114.287 17.0719 114.287 19.9279C114.287 22.6159 115.511 24.1759 117.503 24.1759C118.079 24.1759 118.751 24.0079 119.519 23.7199Z" fill="#156C5F"/>
<path d="M41.7362 0.0584695C44.0735 -0.476092 47.1226 2.7915 48.5115 4.29051C52.4884 -1.26394 62.9423 0.788838 63.4563 8.25821C63.5223 9.21793 63.4729 10.2099 63.4727 11.1733C63.4717 14.2266 63.7354 16.8491 61.3481 19.1781C60.9825 19.5348 60.5752 19.8599 60.245 20.2508L60.2067 20.2968C61.0497 21.0191 63.7723 23.4356 64.2842 24.1782C65.7679 26.3301 64.6705 27.8785 63.4711 29.4984C64.3185 30.3181 64.8984 31.2871 64.9025 32.5004C64.911 35.0165 61.9528 36.8127 60.2067 38.5812C63.2425 41.3777 63.5868 42.5398 63.5692 46.7986C63.5646 47.9525 63.601 49.1157 63.5585 50.2686C63.2812 57.757 53.4919 60.1868 48.5115 54.7706C45.7914 56.9371 43.6409 60.4723 39.5434 58.3412C37.7465 57.4068 34.4917 53.8096 32.5866 52.2905C31.1509 53.391 29.3292 55.2202 27.9876 56.4738C26.271 58.0775 25.445 58.9535 22.9028 58.9034C20.6256 58.7751 18.3958 56.3312 16.6949 54.7706C12.8953 58.351 7.57915 59.2192 3.69604 55.2761C1.6545 53.203 1.57375 51.524 1.55818 48.7812L1.55504 45.13C1.55612 41.5696 2.78124 40.7331 4.91352 38.5812C4.34032 38.0916 3.79716 37.5448 3.23193 37.0414C0.697051 34.7839 -1.7422 32.4304 1.70434 29.4984C0.734725 28.8735 0.0254459 27.3841 0.0791525 26.2579C0.16286 24.5034 1.53362 23.4511 2.72697 22.3842L5.05551 20.2968C1.60844 16.9197 1.56247 16.0294 1.55575 11.5096C1.55366 10.0978 1.43763 8.59224 1.73025 7.20541C2.92829 1.52755 10.2298 -0.447617 14.6667 2.66811C15.376 3.16623 15.9912 3.78256 16.6949 4.29051C17.886 2.92966 20.7479 0.418559 22.3479 0.123786C24.8106 -0.329933 26.2179 0.837196 27.8826 2.39455L30.9163 5.17992C31.4358 5.64966 31.9467 6.18694 32.5226 6.58432L32.5866 6.62793L32.6222 6.59089C33.4745 5.71323 34.4606 4.93481 35.3663 4.11059L37.3473 2.31419C38.7585 1.02032 39.6901 0.080378 41.7362 0.0584695ZM42.4129 18.7276C41.7566 19.0281 39.4865 21.2674 38.7964 21.892L32.423 27.7506C31.1653 28.9203 23.1949 36.5979 22.0639 37.1732C21.5001 36.8426 19.7489 35.2149 19.2541 34.699L19.2565 30.9044C19.2569 30.2745 19.2855 29.6324 19.2541 29.004C18.5773 28.5605 17.9662 27.8642 17.3724 27.3073C15.7531 25.7887 13.6168 23.5679 11.8619 22.2682C11.1461 22.8499 10.4958 23.5156 9.79218 24.1143C10.821 24.9845 11.7613 25.9585 12.767 26.8553L15.1068 28.958C15.4495 29.2666 15.8673 29.561 16.1479 29.9286L16.1509 33.0105C16.1507 33.5704 16.1762 34.1405 16.1479 34.699C16.0161 34.8256 15.8855 34.9539 15.7519 35.0786C14.8707 35.9934 13.8118 36.7016 13.0858 37.7641C13.8154 38.6673 14.7928 39.346 15.6029 40.171H23.0587C23.9405 39.2194 24.9904 38.3692 25.9509 37.4949L39.2247 25.3996C40.0715 24.63 42.3473 22.2348 43.2984 21.8625C44.1016 22.2176 46.6623 24.7018 47.4326 25.4186C48.9403 23.9685 50.5234 22.5179 52.1301 21.1799C51.4659 20.3872 50.3033 19.3961 49.4818 18.7276L44.5713 18.7251C43.8721 18.7243 43.102 18.6419 42.4129 18.7276ZM62.3362 30.655C61.8352 30.9933 61.3918 31.4546 60.9456 31.8631L51.305 40.6654C50.9248 41.006 50.5292 41.4201 50.0855 41.6713L44.4533 41.6723C43.5077 41.6735 42.5449 41.7189 41.6018 41.6713C40.8195 41.2358 40.2389 40.4474 39.5057 39.9276L28.7658 49.7298C27.1309 51.2231 25.027 53.3839 23.3458 54.6481C22.3732 54.0254 21.4951 53.1059 20.6424 52.3257L17.8542 49.7842C16.189 48.2385 13.0508 45.2108 11.0179 44.2093V46.1886V47.3828C11.5254 47.9838 12.1686 48.4969 12.7504 49.0238L19.3505 55.0163C22.7743 58.1088 23.4887 58.3525 27.0886 55.1194L37.621 45.5401C38.0433 45.1543 38.5235 44.8013 38.9267 44.3997H51.3627C52.3388 43.6962 53.2164 42.7753 54.1019 41.9593L61.1238 35.5471C62.7435 34.0571 64.4642 32.6832 62.3362 30.655ZM41.6018 1.58139C40.2389 1.72962 39.4565 2.51644 38.4836 3.39156L28.2692 12.6666C25.7728 14.8937 26.6495 14.5685 23.353 14.5611L17.1145 14.5642C16.0276 14.5631 14.9151 14.5036 13.8322 14.5652C12.5253 15.1527 8.93384 18.8634 7.63508 20.0472C6.33228 21.2347 5.02109 22.4087 3.73717 23.6179C2.03379 25.2218 0.750658 26.171 2.76519 28.4132L13.584 18.4555C14.2332 17.857 14.5551 17.4031 15.4118 17.1615L20.3551 17.1598C23.8138 17.16 22.9854 16.7384 25.6651 19.0437C26.7254 17.6058 30.2794 14.7344 31.6957 13.4534L38.4743 7.29791C39.4114 6.45313 40.3248 5.5603 41.2936 4.75396C42.3394 3.88347 43.9255 6.01251 44.7035 6.7117L50.5499 12.009C51.5291 12.8792 53.1526 13.9208 53.9002 14.7395L53.9249 14.7661C54.298 13.8439 54.4725 13.0369 54.2262 12.0532C54.0836 11.4851 49.2928 7.2291 48.3994 6.38305L45.4547 3.56795C44.5181 2.68003 43.0723 1.20944 41.6018 1.58139ZM6.11221 39.6891C2.84673 42.3052 3.28963 43.9683 3.29637 47.6985C3.29835 48.7935 3.17371 50.4629 3.39995 51.4849C4.27497 55.4379 8.72574 57.0723 12.319 55.8861C13.9731 55.1312 14.3112 54.4985 15.6029 53.7112C14.2525 52.6783 13.0395 51.4123 11.7811 50.2651C11.0135 49.5649 10.1392 48.9134 9.41382 48.1751V42.6943L7.04247 40.5147C6.76618 40.262 6.43572 39.8691 6.11221 39.6891ZM59.0284 39.6891C58.4547 40.018 56.1195 42.1575 55.7946 42.6943C55.8035 47.0729 56.622 47.335 53.4476 50.1972L51.0659 52.3602C50.5898 52.7974 50.0841 53.2137 49.6687 53.7112C50.7958 54.8103 51.5501 55.3385 53.0174 55.8861C56.4633 56.9038 60.6392 55.2933 61.6773 51.6001C62.0317 50.3392 61.7987 49.0013 61.7979 47.7138C61.7955 44.2602 62.3923 42.0403 59.0284 39.6891ZM54.4136 2.68915C52.5407 2.99101 50.807 3.82036 49.6687 5.39535L49.7154 5.45041C50.1989 6.01441 50.8181 6.49904 51.3675 6.99825L54.1221 9.53378C54.6003 9.97399 55.2444 10.421 55.5628 10.9968C56.2789 12.2923 56.0106 14.4952 55.1626 15.667C55.9649 16.4077 56.835 17.1085 57.6012 17.8828C58.0941 18.2813 58.6041 18.7192 59.0284 19.1913C61.5019 16.6071 61.809 16.7184 61.804 12.6515C61.8007 9.94086 62.2416 6.72901 60.1367 4.67112C58.6089 3.17751 56.5121 2.51871 54.4136 2.68915ZM9.56666 2.68915C6.83918 2.99547 4.06605 4.45768 3.40639 7.34546C3.13893 8.51635 3.30102 9.90465 3.2988 11.106C3.29147 15.061 2.95836 16.3005 6.25509 19.1913C6.79483 18.5846 7.45856 18.0898 8.02591 17.507C8.61095 16.9948 9.18588 16.4539 9.79218 15.9685C9.11583 14.8487 9.1381 13.0357 9.4367 11.7913C9.75209 10.4766 10.6193 9.76984 11.573 8.91217L13.8369 6.84966C14.3594 6.38139 14.9505 5.92148 15.4118 5.39535C13.9545 3.89394 11.7522 2.46784 9.56666 2.68915ZM53.333 22.2682C52.3461 23.0349 46.7325 27.9118 46.1414 28.8107L46.1453 32.5022C46.1459 33.3438 46.3934 34.3428 45.7566 34.9935C45.3782 35.3798 43.6923 36.9277 43.2984 37.1732C41.8222 36.3737 37.5093 31.8828 35.9133 30.5341C35.2187 31.2175 34.4533 31.8269 33.768 32.52C34.9683 33.4139 35.9612 34.5959 37.1334 35.5307C38.6474 37.2456 40.573 38.5337 42.1568 40.171H49.4818C50.3173 39.3262 51.2212 38.5282 52.1301 37.7641C51.6862 37.3665 51.2493 36.96 50.8015 36.5668C48.712 34.7321 49.0367 35.1791 49.0166 32.6039C48.9921 29.4689 48.6219 30.3025 50.808 28.2999C52.3362 26.9003 53.9156 25.544 55.4145 24.1143C55.1011 23.8237 53.6273 22.403 53.333 22.2682ZM2.76519 30.655C1.92451 31.3654 1.36058 32.9305 2.14942 33.8278C2.90214 34.6838 3.83238 35.4133 4.6714 36.1839L12.2658 43.1267C12.7712 43.5821 13.2281 44.0775 13.8322 44.3997C17.8887 44.475 21.956 44.3782 26.0141 44.3997C27.1985 45.1687 28.1326 46.3212 29.2658 47.1754C29.709 46.6446 30.2936 46.2676 30.7724 45.7781C30.9855 45.5933 31.2161 45.4135 31.4084 45.2069C29.662 43.6934 27.2485 41.6175 25.6651 39.9276C25.0049 40.4954 24.3632 41.084 23.7199 41.6713C20.8025 41.5991 17.7561 41.813 14.88 41.6713C14.2041 40.9946 13.4753 40.3768 12.7668 39.7359L5.95077 33.4642C5.4039 32.9612 3.29546 30.8364 2.76519 30.655ZM35.9133 11.6674C35.3341 12.3074 34.443 13.1856 33.768 13.7132C35.4547 15.4959 38.07 17.2756 39.5057 19.0437C40.2464 18.54 40.9669 17.5348 41.7619 17.2274C42.0734 17.1069 49.5988 17.1062 50.0074 17.1803C50.4971 17.2689 51.6487 18.5159 52.0524 18.8892L58.8563 25.147C59.4875 25.7296 60.146 26.28 60.7448 26.8982C61.2744 27.3528 61.787 27.8472 62.3362 28.2757C63.8047 26.6797 63.5737 25.5888 62.0066 24.1201C59.3596 21.6389 56.6849 19.158 53.966 16.7599C53.2107 16.0939 52.3032 15.1447 51.5305 14.5652C50.1565 14.6004 48.7747 14.5652 47.4 14.565L39.1735 14.5652C38.1575 13.9202 36.6493 12.0309 35.9133 11.6674ZM54.1328 44.2093C50.9505 46.3574 48.2417 48.9649 45.4143 51.5541L43.3707 53.4141C42.9585 53.7895 42.5571 54.1978 42.1034 54.5212L41.9273 54.6481C39.8691 53.148 38.0656 50.6605 35.9133 49.1998C35.2337 49.8734 34.5023 50.5192 33.768 51.1316C33.9761 51.3059 34.1944 51.4751 34.3897 51.6635L37.1054 54.1712C38.8188 55.7752 41.1386 58.6299 43.7194 56.8645C44.5 56.3306 45.3165 55.4683 46.0238 54.8183L52.4905 48.889C54.3021 47.2609 54.1061 47.5348 54.1504 44.9363C54.1543 44.7149 54.2504 44.4093 54.1328 44.2093ZM15.7519 18.7276C14.9794 19.3358 13.7023 20.4355 13.0858 21.1799C14.575 22.5944 16.3408 23.8998 17.7105 25.4186C18.5494 24.7405 21.1007 22.1047 21.8872 21.8625C22.6316 22.1663 26.3153 25.7318 27.1759 26.5159C27.8642 27.158 28.5731 27.776 29.2658 28.4132C30.0029 27.8891 30.8244 27.2128 31.4084 26.5159C29.4812 24.6337 27.4498 22.8475 25.4643 21.0271C24.6482 20.279 23.7381 19.6121 23.0587 18.7276C20.738 18.7982 18.0713 18.7953 15.7519 18.7276ZM22.9028 1.58139C21.0532 2.00657 19.8632 3.55347 18.4988 4.77683C16.6026 6.47707 14.6934 8.16769 12.8374 9.91283C10.8491 11.7823 10.7987 11.7183 11.0179 14.7661C11.5153 14.4077 11.9214 13.9319 12.4079 13.5604C12.8478 13.2243 13.383 13.0479 13.8189 12.7206C15.1313 11.7342 17.2313 9.70274 18.4288 8.53562L18.4779 8.49777C19.4264 7.76002 20.6177 6.56509 21.5277 5.72743C23.6356 3.78712 23.5371 4.46037 25.4667 6.2382L27.9429 8.48437C28.3733 8.87593 28.7978 9.32021 29.2658 9.66367C29.9727 9.02061 30.6687 8.37604 31.4084 7.77086C29.9146 6.474 28.4684 5.10209 27.0078 3.76599C25.792 2.65371 24.7304 1.37861 22.9028 1.58139ZM32.5866 14.7661C30.778 16.379 28.4674 18.37 26.8319 20.0881C27.3807 20.7908 28.217 21.4507 28.8792 22.0526L32.5866 25.4186C34.4484 23.5872 36.5906 21.9171 38.3862 20.0881C37.5961 19.4567 32.8666 14.8769 32.5866 14.7661ZM32.5866 33.5843C30.8701 34.9798 28.3921 37.2787 26.8319 38.8379C27.4743 39.4573 32.32 44.07 32.5866 44.0657C33.7257 43.2065 34.7646 42.1424 35.8185 41.1756L37.6267 39.5183C37.8747 39.2918 38.1512 39.0762 38.3862 38.8379C37.7411 38.2657 32.7637 33.6393 32.5866 33.5843ZM43.2984 23.7881C41.3078 25.7594 39.101 27.4986 37.1334 29.4984C38.6539 30.8191 40.1268 32.2121 41.6018 33.5843C42.1738 34.0736 42.6984 34.6259 43.2984 35.0786C43.6788 34.7317 44.0964 34.4003 44.4237 34.0008L44.4201 30.2982C44.4201 26.7675 44.5903 28.5451 46.1414 26.5159C45.2928 25.506 44.2243 24.7207 43.2984 23.7881ZM21.8872 23.7881L20.1112 25.3965C19.6991 25.775 19.2986 26.1829 18.8492 26.5159C19.292 26.9338 20.5768 28.0012 20.8327 28.44C21.1451 28.9753 20.9402 33.1386 20.9404 34.0008C21.2627 34.4198 21.6595 34.745 22.0639 35.0786C22.6152 34.5848 23.1484 34.0524 23.7199 33.5843C24.732 32.2825 26.8259 30.9445 28.0684 29.4984C26.5424 27.9382 24.8734 26.5071 23.2721 25.0259C22.8273 24.6143 22.2712 24.2532 21.8872 23.7881ZM23.269 6.39592C22.6382 6.77753 22.1054 7.33109 21.5629 7.82751L17.5512 11.4972C17.0087 11.9924 16.4718 12.4273 16.0052 13.0034H20.9404H25.5029C26.3084 12.4819 27.2801 11.3806 28.0684 10.7192C26.9016 9.84348 24.0061 6.7151 23.269 6.39592ZM41.9273 6.39592C40.5997 7.37323 38.2453 9.51884 37.1334 10.7192C38.1354 11.2629 38.88 12.2976 39.7752 13.0034C41.3228 13.0346 42.8753 13.0025 44.4237 13.0034H49.1863C48.665 12.4341 42.3002 6.54249 41.9273 6.39592ZM21.4418 45.9368L17.8384 45.9403C17.2311 45.9433 16.6082 46.0086 16.0052 45.9368L20.8896 50.4155C21.5524 51.0251 22.3297 51.5968 22.9028 52.2905L23.269 52.5591C24.6883 51.3595 26.8174 49.5221 28.0684 48.1751C27.3089 47.793 26.1299 46.5756 25.5029 45.9368C24.1523 45.9718 22.7937 45.9325 21.4418 45.9368ZM39.7752 45.9368C38.9174 46.3359 37.8974 47.5318 37.1334 48.1751C38.4243 49.3031 40.876 51.2849 41.9273 52.5591C42.7198 51.7981 43.546 50.9756 44.4237 50.3165C45.231 49.2928 48.136 46.8195 49.1863 45.9368L43.064 45.938C41.9799 45.9386 40.8544 46.0076 39.7752 45.9368ZM8.68828 25.2742C7.2559 26.1094 5.28363 28.3441 3.94376 29.4984C4.7429 30.1147 8.41884 33.8149 8.68828 33.7175C10.1958 32.3222 11.8951 30.9179 13.3425 29.4984L9.99644 26.4353C9.61363 26.0859 9.11887 25.534 8.68828 25.2742ZM56.569 25.2742C54.9403 26.6051 53.4767 28.1299 51.8811 29.4984C53.4611 30.8874 54.963 32.3553 56.569 33.7175C57.7407 32.5595 59.8511 30.4251 61.1967 29.4984C60.0806 28.2733 57.8727 26.3547 56.569 25.2742ZM50.6952 30.655C50.656 31.8482 50.6185 33.1306 50.6952 34.3234C51.4236 35.0394 52.4777 36.1053 53.333 36.6231C53.7186 36.3496 54.0361 35.9822 54.4136 35.6929C54.7235 35.3853 55.0588 35.1298 55.4145 34.8796C54.2205 33.8525 51.8943 31.3738 50.6952 30.655ZM14.4911 30.655C13.5757 31.183 10.655 34.0135 9.79218 34.8796C10.1266 35.2108 10.472 35.525 10.824 35.8368C11.1524 36.1143 11.4763 36.4296 11.8619 36.6231C12.5478 35.7118 13.6672 34.9191 14.4911 34.0959C14.4905 33.8075 14.5679 30.736 14.4978 30.6564L14.4911 30.655Z" fill="#544040"/>
</svg>
