<svg xmlns="http://www.w3.org/2000/svg" version="1.1" xmlns:xlink="http://www.w3.org/1999/xlink" xmlns:svgjs="http://svgjs.dev/svgjs" width="260" height="260"><svg width="260" height="260" viewBox="0 0 260 260" fill="none" xmlns="http://www.w3.org/2000/svg">
<rect width="260" height="260" fill="white"></rect>
<path d="M161.479 30.1982C169.402 28.3861 179.738 39.4627 184.446 44.5441C197.927 25.7155 233.364 32.674 235.106 57.9939C235.33 61.2472 235.162 64.6097 235.162 67.8757C235.158 78.2259 236.052 87.1156 227.96 95.0103C226.72 96.2197 225.34 97.3216 224.22 98.6467L224.091 98.8027C226.948 101.251 236.177 109.443 237.913 111.96C242.942 119.255 239.222 124.503 235.156 129.995C238.029 132.773 239.995 136.058 240.008 140.171C240.037 148.7 230.009 154.789 224.091 160.784C234.381 170.263 235.549 174.203 235.489 188.639C235.473 192.551 235.597 196.494 235.453 200.402C234.512 225.786 201.328 234.023 184.446 215.663C175.225 223.007 167.935 234.991 154.045 227.767C147.954 224.599 136.921 212.405 130.463 207.256C125.596 210.987 119.421 217.187 114.873 221.437C109.054 226.873 106.254 229.842 97.6367 229.672C89.9173 229.238 82.3585 220.953 76.5928 215.663C63.713 227.8 45.692 230.743 32.5289 217.377C25.6085 210.349 25.3347 204.658 25.282 195.36L25.2713 182.983C25.275 170.914 29.4279 168.078 36.656 160.784C34.7129 159.124 32.8717 157.271 30.9557 155.564C22.3629 147.911 14.0942 139.934 25.7774 129.995C22.4906 127.876 20.0863 122.827 20.2683 119.01C20.5521 113.062 25.1987 109.495 29.244 105.878L37.1373 98.8027C25.4524 87.3549 25.2965 84.3371 25.2737 69.0157C25.2667 64.2297 24.8733 59.1262 25.8653 54.4251C29.9264 35.1781 54.6774 28.4827 69.7175 39.0444C72.122 40.733 74.2075 42.8222 76.5928 44.5441C80.6306 39.931 90.3318 31.4188 95.7557 30.4196C104.104 28.8816 108.874 32.838 114.517 38.1171L124.801 47.5591C126.562 49.1514 128.294 50.9727 130.246 52.3197L130.463 52.4676L130.584 52.342C133.473 49.3669 136.816 46.7282 139.886 43.9342L146.601 37.8447C151.385 33.4587 154.543 30.2725 161.479 30.1982ZM163.773 93.4834C161.548 94.5021 153.852 102.093 151.513 104.21L129.909 124.07C125.645 128.035 98.6269 154.061 94.793 156.011C92.8818 154.89 86.9453 149.372 85.2681 147.624L85.2764 134.761C85.2777 132.625 85.3745 130.449 85.2681 128.319C82.9741 126.815 80.9023 124.455 78.8896 122.567C73.4005 117.419 66.1587 109.891 60.2098 105.485C57.7833 107.457 55.5791 109.714 53.1938 111.744C56.6812 114.693 59.8688 117.995 63.2779 121.035L71.2094 128.163C72.3711 129.209 73.7875 130.207 74.7386 131.453L74.7489 141.9C74.7482 143.798 74.8347 145.731 74.7386 147.624C74.2919 148.053 73.8493 148.488 73.3964 148.911C70.4092 152.012 66.8196 154.412 64.3587 158.014C66.8319 161.076 70.145 163.376 72.8913 166.173H98.1651C101.154 162.947 104.713 160.065 107.969 157.101L152.965 116.1C155.836 113.492 163.55 105.372 166.774 104.11C169.497 105.314 178.177 113.735 180.788 116.165C185.899 111.249 191.266 106.332 196.712 101.796C194.461 99.1092 190.52 95.7495 187.735 93.4834L171.089 93.4751C168.719 93.4723 166.109 93.1929 163.773 93.4834ZM231.309 133.915C229.611 135.062 228.108 136.626 226.595 138.011L193.915 167.849C192.626 169.004 191.286 170.407 189.781 171.259L170.689 171.262C167.484 171.266 164.22 171.42 161.023 171.259C158.371 169.782 156.403 167.11 153.918 165.348L117.511 198.576C111.969 203.638 104.837 210.962 99.1382 215.248C95.8415 213.137 92.8647 210.02 89.9743 207.375L80.5229 198.76C74.8779 193.52 64.24 183.257 57.3489 179.862V186.572V190.62C59.0693 192.657 61.2494 194.396 63.2217 196.182L85.5948 216.496C97.2009 226.979 99.6226 227.805 111.826 216.845L147.529 184.373C148.96 183.066 150.588 181.869 151.955 180.508H194.111C197.42 178.123 200.395 175.001 203.396 172.235L227.199 150.499C232.69 145.448 238.523 140.791 231.309 133.915ZM161.023 35.3606C156.403 35.8631 153.751 38.5303 150.453 41.4968L115.828 72.9378C107.365 80.4871 110.337 79.3846 99.1629 79.3596L78.0154 79.37C74.331 79.3666 70.5595 79.1648 66.8889 79.3735C62.4586 81.365 50.2842 93.9438 45.8816 97.9567C41.4654 101.982 37.0207 105.962 32.6684 110.061C26.8942 115.498 22.5446 118.715 29.3735 126.316L66.0475 92.5612C68.2483 90.5322 69.3394 88.9935 72.2435 88.1745L89.0005 88.169C100.725 88.1697 97.9167 86.7405 107 94.5548C110.595 89.6806 122.642 79.947 127.443 75.6047L150.421 54.7387C153.598 51.875 156.694 48.8485 159.978 46.1151C163.524 43.1643 168.9 50.3814 171.537 52.7515L191.356 70.7084C194.675 73.6582 200.178 77.1892 202.713 79.9643L202.796 80.0544C204.061 76.9285 204.653 74.1929 203.817 70.8582C203.334 68.9325 187.094 54.5054 184.066 51.6375L174.084 42.0948C170.909 39.0849 166.008 34.0998 161.023 35.3606ZM40.7194 164.539C29.6499 173.407 31.1513 179.045 31.1741 191.69C31.1809 195.402 30.7583 201.061 31.5253 204.525C34.4914 217.925 49.5788 223.466 61.7593 219.444C67.3665 216.886 68.5125 214.741 72.8913 212.072C68.3135 208.571 64.2016 204.279 59.936 200.39C57.3338 198.017 54.37 195.808 51.9113 193.305V174.726L43.8728 167.338C42.9362 166.481 41.816 165.149 40.7194 164.539ZM220.096 164.539C218.151 165.654 210.236 172.907 209.134 174.726C209.165 189.569 211.939 190.458 201.178 200.16L193.105 207.492C191.491 208.974 189.777 210.385 188.368 212.072C192.189 215.798 194.746 217.588 199.72 219.444C211.401 222.894 225.556 217.435 229.075 204.916C230.277 200.641 229.487 196.106 229.484 191.742C229.476 180.035 231.499 172.509 220.096 164.539ZM204.453 39.1158C198.104 40.139 192.227 42.9504 188.368 48.2893L188.527 48.476C190.166 50.3878 192.265 52.0306 194.127 53.7229L203.465 62.3179C205.086 63.8101 207.269 65.3253 208.349 67.2773C210.776 71.6688 209.867 79.1363 206.992 83.1083C209.711 85.6192 212.661 87.9949 215.258 90.6195C216.929 91.9703 218.658 93.455 220.096 95.0554C228.481 86.2953 229.522 86.6725 229.505 72.8865C229.494 63.6978 230.989 52.8102 223.853 45.8343C218.674 40.7712 211.566 38.538 204.453 39.1158ZM52.4294 39.1158C43.1837 40.1541 33.7832 45.1108 31.5471 54.8998C30.6404 58.869 31.1899 63.5751 31.1824 67.6476C31.1575 81.0544 30.0283 85.2559 41.2037 95.0554C43.0333 92.9987 45.2833 91.3213 47.2065 89.3457C49.1897 87.6094 51.1386 85.7759 53.1938 84.1304C50.9011 80.3346 50.9766 74.1887 51.9888 69.9706C53.0579 65.5139 55.9977 63.1181 59.2306 60.2108L66.9047 53.2192C68.6758 51.6318 70.6796 50.0728 72.2435 48.2893C67.3034 43.1998 59.8379 38.3656 52.4294 39.1158ZM200.79 105.485C197.444 108.084 178.415 124.616 176.412 127.663L176.425 140.177C176.427 143.03 177.266 146.416 175.107 148.622C173.824 149.931 168.11 155.179 166.774 156.011C161.77 153.301 147.15 138.077 141.74 133.505C139.385 135.822 136.791 137.888 134.468 140.237C138.537 143.268 141.903 147.274 145.876 150.443C151.008 156.256 157.535 160.623 162.905 166.173H187.735C190.567 163.309 193.631 160.604 196.712 158.014C195.207 156.666 193.726 155.288 192.209 153.955C185.125 147.736 186.226 149.251 186.158 140.522C186.075 129.895 184.82 132.72 192.23 125.932C197.411 121.187 202.765 116.59 207.846 111.744C206.783 110.758 201.788 105.942 200.79 105.485ZM29.3735 133.915C26.5238 136.324 24.6121 141.629 27.2862 144.67C29.8378 147.572 32.9911 150.045 35.8353 152.657L61.5788 176.192C63.2923 177.736 64.8412 179.415 66.8889 180.508C80.6395 180.763 94.4272 180.435 108.183 180.508C112.198 183.114 115.365 187.021 119.206 189.917C120.708 188.117 122.69 186.839 124.313 185.18C125.036 184.554 125.817 183.944 126.469 183.244C120.549 178.113 112.368 171.076 107 165.348C104.762 167.273 102.587 169.268 100.406 171.259C90.5171 171.014 80.19 171.739 70.4408 171.259C68.1495 168.965 65.679 166.871 63.2772 164.698L40.1721 143.438C38.3183 141.733 31.171 134.53 29.3735 133.915ZM141.74 69.5504C139.777 71.7201 136.756 74.697 134.468 76.4854C140.186 82.5286 149.051 88.5614 153.918 94.5548C156.429 92.8475 158.871 89.44 161.566 88.3978C162.622 87.9894 188.132 87.9873 189.516 88.2383C191.176 88.5386 195.08 92.7657 196.449 94.0312L219.513 115.244C221.653 117.219 223.885 119.085 225.915 121.18C227.71 122.721 229.447 124.397 231.309 125.85C236.287 120.44 235.504 116.742 230.192 111.763C221.219 103.352 212.152 94.9424 202.936 86.8133C200.375 84.5555 197.299 81.338 194.68 79.3735C190.022 79.4928 185.338 79.3735 180.678 79.3728L152.792 79.3735C149.347 77.1871 144.235 70.7826 141.74 69.5504ZM203.501 179.862C192.714 187.144 183.531 195.983 173.947 204.76L167.019 211.065C165.622 212.337 164.261 213.721 162.723 214.818L162.126 215.248C155.149 210.163 149.036 201.731 141.74 196.779C139.436 199.062 136.957 201.251 134.468 203.328C135.173 203.918 135.913 204.492 136.575 205.131L145.781 213.631C151.589 219.068 159.453 228.745 168.202 222.761C170.848 220.951 173.615 218.028 176.013 215.825L197.934 195.726C204.075 190.207 203.411 191.135 203.561 182.326C203.574 181.576 203.9 180.54 203.501 179.862ZM73.3964 93.4834C70.7777 95.545 66.4483 99.2729 64.3587 101.796C69.4066 106.591 75.3926 111.016 80.0356 116.165C82.8794 113.866 91.5279 104.931 94.1939 104.11C96.7171 105.14 109.204 117.226 112.122 119.884C114.455 122.061 116.858 124.156 119.206 126.316C121.705 124.539 124.489 122.247 126.469 119.884C119.936 113.504 113.05 107.449 106.32 101.278C103.553 98.7424 100.468 96.4818 98.1651 93.4834C90.2982 93.7226 81.2585 93.7129 73.3964 93.4834ZM97.6367 35.3606C91.3666 36.8019 87.333 42.0457 82.7078 46.1927C76.2799 51.9562 69.8081 57.6871 63.5167 63.6028C56.7766 69.9401 56.6057 69.723 57.3489 80.0544C59.035 78.8396 60.4116 77.2266 62.0606 75.9674C63.5517 74.8281 65.3661 74.2303 66.8436 73.1208C71.2924 69.7771 78.4113 62.8907 82.4704 58.9343L82.6371 58.806C85.8521 56.3052 89.8906 52.2545 92.9751 49.415C100.121 42.8377 99.7866 45.1199 106.328 51.1464L114.722 58.7606C116.181 60.0879 117.62 61.5939 119.206 62.7582C121.603 60.5783 123.962 58.3933 126.469 56.3419C121.406 51.9458 116.503 47.2952 111.552 42.7661C107.431 38.9956 103.832 34.6733 97.6367 35.3606ZM130.463 80.0544C124.332 85.5221 116.5 92.2713 110.956 98.0954C112.816 100.477 115.651 102.714 117.896 104.754L130.463 116.165C136.774 109.957 144.036 104.295 150.123 98.0954C147.444 95.9548 131.412 80.4303 130.463 80.0544ZM130.463 143.845C124.645 148.576 116.244 156.369 110.956 161.654C113.133 163.754 129.559 179.39 130.463 179.375C134.325 176.463 137.846 172.855 141.419 169.578L147.548 163.96C148.389 163.193 149.326 162.462 150.123 161.654C147.936 159.714 131.064 144.032 130.463 143.845ZM166.774 110.637C160.026 117.32 152.546 123.216 145.876 129.995C151.03 134.471 156.023 139.194 161.023 143.845C162.962 145.504 164.74 147.376 166.774 148.911C168.064 147.735 169.479 146.611 170.589 145.257L170.577 132.706C170.577 120.737 171.154 126.763 176.412 119.884C173.535 116.461 169.913 113.799 166.774 110.637ZM94.1939 110.637L88.1736 116.09C86.7764 117.373 85.4191 118.755 83.8957 119.884C85.3964 121.301 89.7519 124.919 90.6193 126.407C91.6782 128.221 90.9837 142.334 90.9844 145.257C92.0769 146.677 93.4219 147.78 94.793 148.911C96.6616 147.237 98.4691 145.432 100.406 143.845C103.837 139.432 110.935 134.896 115.147 129.995C109.974 124.706 104.316 119.855 98.8884 114.833C97.3807 113.438 95.4957 112.214 94.1939 110.637ZM98.8781 51.6811C96.7398 52.9747 94.9336 54.8512 93.0945 56.5339L79.4956 68.9734C77.6565 70.6522 75.8366 72.1265 74.2548 74.0792H90.9844H106.451C109.181 72.3116 112.475 68.5782 115.147 66.3363C111.192 63.3677 101.377 52.763 98.8781 51.6811ZM162.126 51.6811C157.626 54.994 149.645 62.2673 145.876 66.3363C149.273 68.1795 151.797 71.6868 154.831 74.0792C160.077 74.1852 165.34 74.0764 170.589 74.0792H186.733C184.966 72.1493 163.39 52.1779 162.126 51.6811ZM92.6842 185.718L80.4693 185.73C78.4106 185.74 76.2991 185.961 74.2548 185.718L90.8121 200.9C93.0589 202.966 95.694 204.904 97.6367 207.256L98.8781 208.166C103.689 204.1 110.906 197.872 115.147 193.305C112.572 192.01 108.576 187.884 106.451 185.718C101.872 185.837 97.2668 185.703 92.6842 185.718ZM154.831 185.718C151.923 187.071 148.466 191.125 145.876 193.305C150.252 197.129 158.563 203.847 162.126 208.166C164.813 205.587 167.613 202.799 170.589 200.564C173.326 197.094 183.173 188.71 186.733 185.718L165.98 185.722C162.305 185.724 158.489 185.958 154.831 185.718ZM49.4518 115.675C44.5963 118.507 37.9106 126.082 33.3687 129.995C36.0776 132.084 48.5384 144.627 49.4518 144.297C54.5622 139.567 60.3224 134.806 65.2289 129.995L53.8862 119.611C52.5886 118.427 50.9114 116.556 49.4518 115.675ZM211.759 115.675C206.238 120.187 201.277 125.356 195.868 129.995C201.224 134.703 206.315 139.679 211.759 144.297C215.731 140.371 222.885 133.136 227.446 129.995C223.663 125.842 216.178 119.338 211.759 115.675ZM191.848 133.915C191.715 137.96 191.588 142.307 191.848 146.351C194.317 148.778 197.89 152.391 200.79 154.146C202.097 153.219 203.173 151.974 204.453 150.993C205.504 149.95 206.64 149.084 207.846 148.236C203.798 144.754 195.913 136.352 191.848 133.915ZM69.1225 133.915C66.0194 135.705 56.1185 145.3 53.1938 148.236C54.3275 149.359 55.4982 150.424 56.6915 151.481C57.8046 152.422 58.9025 153.49 60.2098 154.146C62.5348 151.057 66.3296 148.37 69.1225 145.579C69.1205 144.602 69.3826 134.19 69.1452 133.92L69.1225 133.915Z" fill="#544040"></path>
</svg><style>@media (prefers-color-scheme: light) { :root { filter: none; } }
@media (prefers-color-scheme: dark) { :root { filter: none; } }
</style></svg>